<mxfile host="app.diagrams.net" agent="Mozilla/5.0 (Windows NT 10.0; Win64; x64) AppleWebKit/537.36 (KHTML, like Gecko) Chrome/137.0.0.0 Safari/537.36 OPR/121.0.0.0" version="28.2.5">
  <diagram name="PÃ¡gina-1" id="2rj19UhDSFJnFfgUXsGi">
    <mxGraphModel grid="1" page="1" gridSize="10" guides="1" tooltips="1" connect="1" arrows="1" fold="1" pageScale="1" pageWidth="827" pageHeight="1169" math="0" shadow="0">
      <root>
        <mxCell id="0" />
        <mxCell id="1" parent="0" />
        <mxCell id="AyxYlHVRZTqRhhLJ_Fwl-1" value="Usuario" style="shape=umlActor;verticalLabelPosition=bottom;verticalAlign=top;html=1;labelPosition=center;align=center;" vertex="1" parent="1">
          <mxGeometry x="480" y="230" width="30" height="60" as="geometry" />
        </mxCell>
        <mxCell id="AyxYlHVRZTqRhhLJ_Fwl-4" value="" style="endArrow=none;dashed=1;html=1;rounded=0;" edge="1" parent="1">
          <mxGeometry width="50" height="50" relative="1" as="geometry">
            <mxPoint x="500" y="760" as="sourcePoint" />
            <mxPoint x="500" y="310" as="targetPoint" />
          </mxGeometry>
        </mxCell>
        <mxCell id="AyxYlHVRZTqRhhLJ_Fwl-5" value="" style="endArrow=none;dashed=1;html=1;rounded=0;entryX=0.5;entryY=1;entryDx=0;entryDy=0;" edge="1" parent="1">
          <mxGeometry width="50" height="50" relative="1" as="geometry">
            <mxPoint x="635" y="760" as="sourcePoint" />
            <mxPoint x="635" y="285" as="targetPoint" />
          </mxGeometry>
        </mxCell>
        <mxCell id="AyxYlHVRZTqRhhLJ_Fwl-6" value="" style="endArrow=classic;html=1;rounded=0;" edge="1" parent="1">
          <mxGeometry width="50" height="50" relative="1" as="geometry">
            <mxPoint x="500" y="380" as="sourcePoint" />
            <mxPoint x="630" y="380" as="targetPoint" />
          </mxGeometry>
        </mxCell>
        <mxCell id="AyxYlHVRZTqRhhLJ_Fwl-7" value="Realiza peticion HTTP" style="text;html=1;align=center;verticalAlign=middle;whiteSpace=wrap;rounded=0;" vertex="1" parent="1">
          <mxGeometry x="530" y="340" width="80" height="30" as="geometry" />
        </mxCell>
        <mxCell id="AyxYlHVRZTqRhhLJ_Fwl-8" value="" style="endArrow=none;dashed=1;html=1;rounded=0;entryX=0.5;entryY=1;entryDx=0;entryDy=0;" edge="1" parent="1">
          <mxGeometry width="50" height="50" relative="1" as="geometry">
            <mxPoint x="826" y="760" as="sourcePoint" />
            <mxPoint x="825" y="290" as="targetPoint" />
          </mxGeometry>
        </mxCell>
        <mxCell id="AyxYlHVRZTqRhhLJ_Fwl-9" value="" style="endArrow=none;dashed=1;html=1;rounded=0;entryX=0.5;entryY=1;entryDx=0;entryDy=0;" edge="1" parent="1">
          <mxGeometry width="50" height="50" relative="1" as="geometry">
            <mxPoint x="995" y="760" as="sourcePoint" />
            <mxPoint x="995" y="285" as="targetPoint" />
          </mxGeometry>
        </mxCell>
        <mxCell id="AyxYlHVRZTqRhhLJ_Fwl-10" value="&lt;font style=&quot;font-size: 9px;&quot;&gt;distribueye carga (Round robin)&lt;/font&gt;" style="html=1;verticalAlign=bottom;endArrow=block;curved=0;rounded=0;" edge="1" parent="1">
          <mxGeometry width="80" relative="1" as="geometry">
            <mxPoint x="640" y="410" as="sourcePoint" />
            <mxPoint x="820" y="410" as="targetPoint" />
            <mxPoint as="offset" />
          </mxGeometry>
        </mxCell>
        <mxCell id="AyxYlHVRZTqRhhLJ_Fwl-11" value="consulta cache de productos" style="html=1;verticalAlign=bottom;endArrow=block;curved=0;rounded=0;" edge="1" parent="1">
          <mxGeometry width="80" relative="1" as="geometry">
            <mxPoint x="830" y="440" as="sourcePoint" />
            <mxPoint x="1140" y="440" as="targetPoint" />
            <mxPoint as="offset" />
          </mxGeometry>
        </mxCell>
        <mxCell id="AyxYlHVRZTqRhhLJ_Fwl-13" value="" style="endArrow=none;dashed=1;html=1;rounded=0;entryX=0.5;entryY=1;entryDx=0;entryDy=0;" edge="1" parent="1">
          <mxGeometry width="50" height="50" relative="1" as="geometry">
            <mxPoint x="1135" y="760" as="sourcePoint" />
            <mxPoint x="1135" y="285" as="targetPoint" />
          </mxGeometry>
        </mxCell>
        <mxCell id="AyxYlHVRZTqRhhLJ_Fwl-14" value="Redis cache" style="html=1;whiteSpace=wrap;fillColor=#d5e8d4;strokeColor=#82b366;" vertex="1" parent="1">
          <mxGeometry x="1080" y="235" width="110" height="50" as="geometry" />
        </mxCell>
        <mxCell id="AyxYlHVRZTqRhhLJ_Fwl-17" value="retoma de datos cacheados" style="html=1;verticalAlign=bottom;endArrow=open;dashed=1;endSize=8;curved=0;rounded=0;" edge="1" parent="1">
          <mxGeometry relative="1" as="geometry">
            <mxPoint x="1140" y="470" as="sourcePoint" />
            <mxPoint x="830" y="470" as="targetPoint" />
          </mxGeometry>
        </mxCell>
        <mxCell id="AyxYlHVRZTqRhhLJ_Fwl-19" value="retorna respuesta" style="html=1;verticalAlign=bottom;endArrow=open;dashed=1;endSize=8;curved=0;rounded=0;" edge="1" parent="1">
          <mxGeometry relative="1" as="geometry">
            <mxPoint x="830" y="520" as="sourcePoint" />
            <mxPoint x="630" y="520" as="targetPoint" />
          </mxGeometry>
        </mxCell>
        <mxCell id="AyxYlHVRZTqRhhLJ_Fwl-20" value="Distribuye carga" style="html=1;verticalAlign=bottom;endArrow=block;curved=0;rounded=0;" edge="1" parent="1">
          <mxGeometry width="80" relative="1" as="geometry">
            <mxPoint x="630" y="600" as="sourcePoint" />
            <mxPoint x="990" y="600" as="targetPoint" />
            <mxPoint as="offset" />
          </mxGeometry>
        </mxCell>
        <mxCell id="AyxYlHVRZTqRhhLJ_Fwl-21" value="retoma datos cacheados" style="html=1;verticalAlign=bottom;endArrow=open;dashed=1;endSize=8;curved=0;rounded=0;" edge="1" parent="1">
          <mxGeometry x="0.0068" relative="1" as="geometry">
            <mxPoint x="1130" y="670" as="sourcePoint" />
            <mxPoint x="990" y="670" as="targetPoint" />
            <mxPoint as="offset" />
          </mxGeometry>
        </mxCell>
        <mxCell id="AyxYlHVRZTqRhhLJ_Fwl-24" value="C_load Blanacer" style="html=1;whiteSpace=wrap;fillColor=#e1d5e7;strokeColor=#9673a6;" vertex="1" parent="1">
          <mxGeometry x="590" y="235" width="110" height="50" as="geometry" />
        </mxCell>
        <mxCell id="AyxYlHVRZTqRhhLJ_Fwl-27" value="V_servidor1" style="html=1;whiteSpace=wrap;fillColor=#ffe6cc;strokeColor=#d79b00;" vertex="1" parent="1">
          <mxGeometry x="770" y="235" width="110" height="50" as="geometry" />
        </mxCell>
        <mxCell id="AyxYlHVRZTqRhhLJ_Fwl-29" value="V_servidor 2" style="html=1;whiteSpace=wrap;fillColor=#ffe6cc;strokeColor=#d79b00;" vertex="1" parent="1">
          <mxGeometry x="940" y="235" width="110" height="50" as="geometry" />
        </mxCell>
        <mxCell id="AyxYlHVRZTqRhhLJ_Fwl-30" value="" style="endArrow=none;dashed=1;html=1;rounded=0;entryX=0.5;entryY=1;entryDx=0;entryDy=0;" edge="1" parent="1" target="AyxYlHVRZTqRhhLJ_Fwl-29">
          <mxGeometry width="50" height="50" relative="1" as="geometry">
            <mxPoint x="995" y="755" as="sourcePoint" />
            <mxPoint x="1040" y="365" as="targetPoint" />
          </mxGeometry>
        </mxCell>
        <mxCell id="AyxYlHVRZTqRhhLJ_Fwl-31" value="Entrega resultados" style="html=1;verticalAlign=bottom;endArrow=open;dashed=1;endSize=8;curved=0;rounded=0;" edge="1" parent="1">
          <mxGeometry relative="1" as="geometry">
            <mxPoint x="640" y="540" as="sourcePoint" />
            <mxPoint x="500" y="540" as="targetPoint" />
          </mxGeometry>
        </mxCell>
        <mxCell id="AyxYlHVRZTqRhhLJ_Fwl-32" value="" style="endArrow=classic;html=1;rounded=0;" edge="1" parent="1">
          <mxGeometry width="50" height="50" relative="1" as="geometry">
            <mxPoint x="505" y="570" as="sourcePoint" />
            <mxPoint x="635" y="570" as="targetPoint" />
          </mxGeometry>
        </mxCell>
        <mxCell id="AyxYlHVRZTqRhhLJ_Fwl-33" value="Realiza otra peticion" style="text;html=1;align=center;verticalAlign=middle;resizable=0;points=[];autosize=1;strokeColor=none;fillColor=none;" vertex="1" parent="1">
          <mxGeometry x="500" y="548" width="130" height="30" as="geometry" />
        </mxCell>
        <mxCell id="AyxYlHVRZTqRhhLJ_Fwl-34" value="&lt;font style=&quot;font-size: 9px;&quot;&gt;Consulta cache de productos&lt;/font&gt;" style="html=1;verticalAlign=bottom;endArrow=block;curved=0;rounded=0;" edge="1" parent="1">
          <mxGeometry width="80" relative="1" as="geometry">
            <mxPoint x="990" y="640" as="sourcePoint" />
            <mxPoint x="1140" y="640" as="targetPoint" />
            <mxPoint as="offset" />
          </mxGeometry>
        </mxCell>
        <mxCell id="AyxYlHVRZTqRhhLJ_Fwl-36" value="retorna respuesta" style="html=1;verticalAlign=bottom;endArrow=open;dashed=1;endSize=8;curved=0;rounded=0;" edge="1" parent="1">
          <mxGeometry relative="1" as="geometry">
            <mxPoint x="990" y="700" as="sourcePoint" />
            <mxPoint x="630" y="700" as="targetPoint" />
          </mxGeometry>
        </mxCell>
        <mxCell id="AyxYlHVRZTqRhhLJ_Fwl-37" value="Entrega resultados" style="html=1;verticalAlign=bottom;endArrow=open;dashed=1;endSize=8;curved=0;rounded=0;" edge="1" parent="1">
          <mxGeometry relative="1" as="geometry">
            <mxPoint x="635" y="730" as="sourcePoint" />
            <mxPoint x="495" y="730" as="targetPoint" />
          </mxGeometry>
        </mxCell>
      </root>
    </mxGraphModel>
  </diagram>
</mxfile>
